<svg width="749" height="162" viewBox="0 0 749 162" fill="none" xmlns="http://www.w3.org/2000/svg">
<path d="M-53 92.7219L-38.0415 77.7419C-23.0831 62.9862 6.83388 32.6894 36.7508 17.9338C66.6678 2.95368 96.5847 2.95367 126.502 2.95367C156.419 2.95367 186.336 2.95367 216.252 29.8841C246.169 56.8146 276.086 110.676 306.003 137.606C335.92 164.537 365.837 164.537 395.754 158.533C425.671 152.754 455.588 140.411 485.505 137.606C515.422 134.801 545.339 140.411 575.256 122.626C605.173 104.504 635.09 62.9862 665.007 47.8378C694.923 32.6894 724.84 45.0325 754.757 65.7915C784.674 86.5504 814.591 116.847 844.508 119.652C874.425 122.458 904.342 98.8935 934.259 74.7683C964.176 50.6431 994.093 27.0789 1024.01 26.9106C1053.93 27.0789 1083.84 50.6431 1113.76 47.8378C1143.68 45.0325 1173.59 14.7358 1203.51 23.8809C1233.43 32.6894 1263.35 80.9398 1293.26 95.6955C1323.18 110.676 1353.1 92.7219 1368.05 83.7451L1383.01 74.7683V-15H1368.05C1353.1 -15 1323.18 -15 1293.26 -15C1263.35 -15 1233.43 -15 1203.51 -15C1173.59 -15 1143.68 -15 1113.76 -15C1083.84 -15 1053.93 -15 1024.01 -15C994.093 -15 964.176 -15 934.259 -15C904.342 -15 874.425 -15 844.508 -15C814.591 -15 784.674 -15 754.757 -15C724.84 -15 694.923 -15 665.007 -15C635.09 -15 605.173 -15 575.256 -15C545.339 -15 515.422 -15 485.505 -15C455.588 -15 425.671 -15 395.754 -15C365.837 -15 335.92 -15 306.003 -15C276.086 -15 246.169 -15 216.252 -15C186.336 -15 156.419 -15 126.502 -15C96.5847 -15 66.6678 -15 36.7508 -15C6.83388 -15 -23.0831 -15 -38.0415 -15H-53V92.7219Z" fill="#7A0BC0"/>
</svg>
