<svg width="749" height="254" viewBox="0 0 749 254" fill="none" xmlns="http://www.w3.org/2000/svg">
<path d="M1101 50.0408C1101 57.8775 1092.4 62.6689 1085.73 58.5415L1082.65 56.6312C1064.3 45.6875 1027.6 22.3125 990.9 34C954.2 45.6875 917.5 90.3125 880.8 130.369C844.1 170 807.4 204 770.7 226.631C734 249.688 697.3 260.312 660.6 249.369C623.9 238 587.2 204 550.5 192.631C513.8 181.688 477.1 192.312 440.4 181.369C403.7 170 367 136 330.3 124.631C293.6 113.688 256.9 124.312 220.2 136C183.5 147.688 146.8 158.312 110.1 158.631C73.4 158.312 36.7 147.688 18.35 141.631L7.06616 138.168C2.8667 136.88 0 133.001 0 128.609V10C0 4.47715 4.47717 0 10 0H18.35C36.7 0 73.4 0 110.1 0C146.8 0 183.5 0 220.2 0C256.9 0 293.6 0 330.3 0C367 0 403.7 0 440.4 0C477.1 0 513.8 0 550.5 0C587.2 0 623.9 0 660.6 0C697.3 0 734 0 770.7 0C807.4 0 844.1 0 880.8 0C917.5 0 954.2 0 990.9 0C1027.6 0 1064.3 0 1082.65 0H1091C1096.52 0 1101 4.47715 1101 10V50.0408Z" fill="#7A0BC0" fill-opacity="0.6"/>
</svg>
