<svg width="749" height="310" viewBox="0 0 749 310" fill="none" xmlns="http://www.w3.org/2000/svg">
<path d="M0 10.4513C0 1.49899 10.8608 -2.94284 17.1341 3.44384L21.1833 7.56625C42.3667 29.5375 84.7333 72.0625 127.1 83.2C169.467 94.3375 211.833 72.0625 254.2 72.3663C296.567 72.0625 338.933 94.3375 381.3 94.0338C423.667 94.3375 466.033 72.0625 508.4 88.5663C550.767 104.463 593.133 159.138 635.5 180.4C677.867 201.663 720.233 191.538 762.6 185.766C804.967 180.4 847.333 180.4 889.7 158.834C932.067 136.863 974.433 94.3375 1016.8 83.2C1059.17 72.0625 1101.53 94.3375 1143.9 99.4C1186.27 104.463 1228.63 94.3375 1249.82 88.5663L1258.54 86.3553C1264.86 84.7546 1271 89.5305 1271 96.0491V300C1271 305.523 1266.52 310 1261 310H1249.82C1228.63 310 1186.27 310 1143.9 310C1101.53 310 1059.17 310 1016.8 310C974.433 310 932.067 310 889.7 310C847.333 310 804.967 310 762.6 310C720.233 310 677.867 310 635.5 310C593.133 310 550.767 310 508.4 310C466.033 310 423.667 310 381.3 310C338.933 310 296.567 310 254.2 310C211.833 310 169.467 310 127.1 310C84.7333 310 42.3667 310 21.1833 310H10C4.47715 310 0 305.523 0 300V10.4513Z" fill="#7A0BC0" fill-opacity="0.6"/>
</svg>
